<svg id="Layer_1" data-name="Layer 1" xmlns="http://www.w3.org/2000/svg" viewBox="0 0 253.33 44.11"><defs><style>.cls-1{fill:#3a36db;}.cls-2{fill:#333;}</style></defs><path class="cls-1" d="M22.07,3.41a22,22,0,0,0-11.29,3.7,3.52,3.52,0,0,0-.4.29S12,9.11,16.75,13.82l6.41,6.41,6.35-6.36L35.87,7.5s-1.06-.73-1.6-1.06A22.15,22.15,0,0,0,22.07,3.41Z" transform="translate(-1 -3.38)"/><path class="cls-2" d="M52.91,25.42v17H58.4V40c0-4.73,0-19.78,0-19.74s2,3.77,4.5,8.33l4.47,8.3h4.15L76,28.44C78.41,23.79,80.42,20,80.43,20s0,5,0,11.19v11.2h5.48V8.46H81.06L75.27,19.53c-3.18,6.09-5.79,11.08-5.8,11.08s-2.64-5-5.84-11.07L57.82,8.47H52.91Z" transform="translate(-1 -3.38)"/><path class="cls-2" d="M147.49,25.42v17h20.93V39.85h-18V26.46h17v-2.6h-17V11h18V8.46H147.49Z" transform="translate(-1 -3.38)"/><path class="cls-2" d="M251.4,25.42v17h2.93V8.46H251.4Z" transform="translate(-1 -3.38)"/><path class="cls-2" d="M240.3,11.05v1.84h3.85V9.2H240.3Z" transform="translate(-1 -3.38)"/><path class="cls-1" d="M6.05,11.39a22.06,22.06,0,1,0,35,1.24c-.29-.41-.63-.85-.88-1.15l-.17-.2-8.4,8.4-8.4,8.4L14.7,19.62,6.24,11.16Z" transform="translate(-1 -3.38)"/><path class="cls-2" d="M184.29,18.5l-.33,0a8,8,0,0,0-3.63,1.26,5.85,5.85,0,0,0-1.1.91,7.18,7.18,0,0,0-1.37,1.9l-.15.28V19.05h-2.89V42.4h2.93V35.24c0-7.71,0-7.3.12-8.06a7.34,7.34,0,0,1,2-4.22,6,6,0,0,1,3.88-1.84,11.38,11.38,0,0,1,1.65,0A4.89,4.89,0,0,1,188,22c1.14.88,1.73,2.43,1.85,4.85,0,.27,0,3.28,0,8V42.4h2.94v-7c0-4.38,0-7.1,0-7.31a7.82,7.82,0,0,1,2.14-5.25,6.25,6.25,0,0,1,4.28-1.77c2.54-.1,4.15.72,4.95,2.51a9.14,9.14,0,0,1,.67,3.39c0,.3,0,3.35,0,8V42.4h2.94V34.85c0-7.54,0-8.16-.08-9a8.72,8.72,0,0,0-2.08-5.38,5.51,5.51,0,0,0-1-.83,7.47,7.47,0,0,0-3.34-1.14,20.65,20.65,0,0,0-2.09,0,8.71,8.71,0,0,0-4.88,1.85,10,10,0,0,0-1.13,1.13,8.56,8.56,0,0,0-.86,1.32c-.11.22-.15.27-.16.24a6.7,6.7,0,0,0-2-3A6.86,6.86,0,0,0,187,18.64a8.93,8.93,0,0,0-1.77-.14Z" transform="translate(-1 -3.38)"/><path class="cls-2" d="M223.77,18.5l-.49.05a17,17,0,0,0-6.69,2.12c-.31.18-1,.61-1,.64s1,2.21,1.08,2.24a1.23,1.23,0,0,0,.29-.15,16,16,0,0,1,3.82-1.79A13.07,13.07,0,0,1,224.2,21a6.48,6.48,0,0,1,4.06.89,5.23,5.23,0,0,1,.88.88,6.09,6.09,0,0,1,.59,1.17,7.9,7.9,0,0,1,.37,1.67,15.5,15.5,0,0,1,.08,2.12v1.15H228.6c-1.62,0-2.29,0-3.44.09-3.58.2-6,.65-7.57,1.45a4.82,4.82,0,0,0-2.35,2.25,6.45,6.45,0,0,0-.59,3.09,5.71,5.71,0,0,0,.2,1.49,6.57,6.57,0,0,0,1.77,3.06,8.44,8.44,0,0,0,5.14,2.32,13,13,0,0,0,2,0,8,8,0,0,0,4.11-1.54A7.44,7.44,0,0,0,230,38.54l.16-.32V42.4h2.89v-8c0-8.74,0-8.16-.13-9.12-.51-3.83-2.55-6-6.14-6.61a10.14,10.14,0,0,0-2-.15Zm6.4,13.77a9.82,9.82,0,0,1-.11,2A7.18,7.18,0,0,1,228,38.3a6.6,6.6,0,0,1-3.88,1.83,9.39,9.39,0,0,1-1.59,0,5.39,5.39,0,0,1-3.43-1.5,4,4,0,0,1-.9-1.2,4.66,4.66,0,0,1-.06-3.8c.8-1.65,3-2.34,8.13-2.52.95,0,1,0,2.57,0h1.4Z" transform="translate(-1 -3.38)"/><path class="cls-2" d="M92.63,26.42c0,7.76,0,7.65.1,8.54.34,3.37,1.69,5.69,4,6.87a9.4,9.4,0,0,0,3.44.91,18.07,18.07,0,0,0,2.21,0,8.6,8.6,0,0,0,3.3-1.06,7.72,7.72,0,0,0,2.67-2.6l.17-.26V42.4h5.86V18.87h-6v7c0,7.67,0,7-.13,7.75a5.45,5.45,0,0,1-2.45,3.66,5.24,5.24,0,0,1-2,.71,10.83,10.83,0,0,1-1.8,0,4.18,4.18,0,0,1-1.52-.49c-1.08-.62-1.67-1.84-1.79-3.67,0-.2,0-3.11,0-7.64v-7.3h-6Z" transform="translate(-1 -3.38)"/><path class="cls-2" d="M117.53,18.9l4.66,5.7,4.64,5.67-.07.09c-.05.05-2.25,2.77-4.91,6l-4.86,6s.77,0,3.54,0h3.56l3.1-3.92c1.7-2.15,3.1-3.91,3.11-3.91s1.42,1.76,3.13,3.92l3.13,3.91h3.55c2.6,0,3.55,0,3.54,0l-5-6.06-4.93-6.05,4.63-5.66c2.55-3.1,4.64-5.67,4.65-5.69a24,24,0,0,0-3.55,0h-3.58l-2.8,3.57c-1.54,2-2.81,3.58-2.82,3.58s-1.28-1.6-2.82-3.57l-2.81-3.58h-3.58C118.24,18.87,117.52,18.88,117.53,18.9Z" transform="translate(-1 -3.38)"/><path class="cls-2" d="M240.72,30.72V42.4h2.94V19.05h-2.94Z" transform="translate(-1 -3.38)"/></svg>